<svg width="42" height="36" viewBox="0 0 42 36" fill="none" xmlns="http://www.w3.org/2000/svg" xmlns:xlink="http://www.w3.org/1999/xlink">
<path d="M40,6L26,6C22.817,6 19.765,7.264 17.515,9.515C15.264,11.765 14,14.817 14,18C14,21.183 15.264,24.235 17.515,26.485C19.765,28.736 22.817,30 26,30L40,30L40,34C40,34.53 39.789,35.039 39.414,35.414C39.039,35.789 38.53,36 38,36L2,36C1.47,36 0.961,35.789 0.586,35.414C0.211,35.039 0,34.53 0,34L0,2C0,1.47 0.211,0.961 0.586,0.586C0.961,0.211 1.47,0 2,0L38,0C38.53,0 39.039,0.211 39.414,0.586C39.789,0.961 40,1.47 40,2L40,6ZM26,10L42,10L42,26L26,26C23.878,26 21.843,25.157 20.343,23.657C18.843,22.157 18,20.122 18,18C18,15.878 18.843,13.843 20.343,12.343C21.843,10.843 23.878,10 26,10L26,10ZM26,16L26,20L32,20L32,16L26,16Z" fill="#000000"/>
</svg>
