<svg width="36" height="38" viewBox="0 0 36 38" fill="none" xmlns="http://www.w3.org/2000/svg" xmlns:xlink="http://www.w3.org/1999/xlink">
<path d="M36,36C36,36.53 35.789,37.039 35.414,37.414C35.039,37.789 34.53,38 34,38L2,38C1.47,38 0.961,37.789 0.586,37.414C0.211,37.039 0,36.53 0,36L0,14.98C0,14.675 0.069,14.374 0.203,14.101C0.337,13.827 0.531,13.587 0.772,13.4L16.772,0.956C17.123,0.683 17.555,0.535 18,0.535C18.445,0.535 18.877,0.683 19.228,0.956L35.228,13.4C35.469,13.587 35.663,13.827 35.797,14.101C35.931,14.374 36,14.675 36,14.98L36,36L36,36ZM8,26L8,30L28,30L28,26L8,26Z" fill="#000000"/>
</svg>
