<svg width="40" height="36" viewBox="0 0 40 36" fill="none" xmlns="http://www.w3.org/2000/svg" xmlns:xlink="http://www.w3.org/1999/xlink">
<path d="M0,1.986C0.004,1.461 0.214,0.958 0.585,0.586C0.956,0.215 1.459,0.004 1.984,0L38.016,0C39.112,0 40,0.89 40,1.986L40,34.014C39.996,34.539 39.786,35.042 39.415,35.414C39.044,35.785 38.541,35.996 38.016,36L1.984,36C1.458,35.999 0.953,35.79 0.581,35.418C0.209,35.045 0,34.54 0,34.014L0,1.986ZM8,24L8,28L32,28L32,24L8,24ZM8,8L8,20L20,20L20,8L8,8ZM24,8L24,12L32,12L32,8L24,8ZM24,16L24,20L32,20L32,16L24,16ZM12,12L16,12L16,16L12,16L12,12Z" fill="#000000"/>
</svg>
